<svg xmlns="http://www.w3.org/2000/svg" width="311.206" height="417.132" viewBox="0 0 311.206 417.132"><defs><style>.a{fill:rgba(255,255,255,0);}.b,.c,.g{fill:#00c4ff;}.c,.d{stroke:#00c4ff;}.c,.d,.e{stroke-width:15px;}.d,.e,.h{fill:none;}.d,.e{stroke-linecap:round;}.e{stroke:#000;}.f,.g{stroke:none;}</style></defs><g transform="translate(-44 17.132)"><g class="a" transform="translate(44 -0.141)"><path class="f" d="M 262.3146362304688 392.6409606933594 L 47.79462051391602 392.6409606933594 C 25.57609176635742 392.6409606933594 7.500033855438232 374.5648803710938 7.500033855438232 352.3463745117188 L 7.500033855438232 47.79459762573242 C 7.500033855438232 25.57606887817383 25.57609176635742 7.500009536743164 47.79462051391602 7.500009536743164 L 221.0354309082031 7.500009536743164 L 258.1919250488281 42.18194961547852 L 303.6923522949219 84.20960235595703 L 302.6093139648438 352.3160705566406 C 302.6092834472656 374.5648803710938 284.5331420898438 392.6409606933594 262.3146362304688 392.6409606933594 Z"/><path class="g" d="M 47.79458618164063 15 C 29.71160888671875 15 15 29.71160888671875 15 47.79461669921875 L 15 352.3463439941406 C 15 370.4293518066406 29.71160888671875 385.1409606933594 47.79458618164063 385.1409606933594 L 262.3146057128906 385.1409606933594 C 280.3976745605469 385.1409606933594 295.1092529296875 370.4293518066406 295.1094055175781 352.2857360839844 L 296.1790771484375 87.4796142578125 L 253.0743408203125 47.6646728515625 L 218.0790100097656 15 L 47.79458618164063 15 M 47.79458618164063 0 L 223.9917907714844 0 L 263.3095397949219 36.69921875 L 311.2055969238281 80.93954467773438 L 310.1092529296875 352.3463439941406 C 310.1092529296875 378.7425537109375 288.7107849121094 400.1409606933594 262.3146057128906 400.1409606933594 L 47.79458618164063 400.1409606933594 C 21.39840698242188 400.1409606933594 0 378.7425537109375 0 352.3463439941406 L 0 47.79461669921875 C 0 21.39834594726563 21.39840698242188 0 47.79458618164063 0 Z"/></g><g class="b" transform="matrix(0.946, -0.326, 0.326, 0.946, 238.143, 4.461)"><path class="f" d="M 60.37511825561523 97.39797210693359 L 16.53397750854492 82.30225372314453 C 14.41970920562744 80.88356018066406 11.44543361663818 78.30001831054688 10.59195709228516 76.25368499755859 C 9.561576843261719 73.78306579589844 10.08152866363525 68.65725708007813 10.57414817810059 66.58770751953125 L 23.25810623168945 29.84398078918457 L 60.37511825561523 97.39797210693359 Z"/><path class="g" d="M 25.37546920776367 54.46421813964844 L 20.20099258422852 69.49198913574219 C 20.09770202636719 70.22517395019531 19.98661041259766 71.38520812988281 19.99610900878906 72.27906799316406 C 20.3382682800293 72.61404418945313 20.77047729492188 72.99069976806641 21.19903564453125 73.33235168457031 L 39.13584899902344 79.50849151611328 L 25.37546920776367 54.46421813964844 M 21.16358184814453 5.265365600585938 L 81.61434936523438 115.2874374389648 L 12.18798065185547 91.38200378417969 C 12.18798065185547 91.38200378417969 4.090484619140625 86.643798828125 1.362518310546875 80.10296630859375 C -1.365386962890625 73.56216430664063 0.845947265625 64.27206420898438 0.845947265625 64.27206420898438 L 21.16358184814453 5.265365600585938 Z"/></g><g transform="translate(-18 -23)"><g class="c" transform="translate(152.042 58.987)"><ellipse class="f" cx="52.698" cy="59.624" rx="52.698" ry="59.624"/><ellipse class="h" cx="52.698" cy="59.624" rx="45.198" ry="52.124"/></g><g class="b" transform="translate(97.079 190.719)"><path class="f" d="M 212.5805053710938 95.40869903564453 L 114.3365173339844 95.40869903564453 L 117.151611328125 86.67227172851563 L 142.6627655029297 7.499984741210938 L 163.3726043701172 7.499984741210938 C 190.5059356689453 7.499984741210938 212.5805053710938 31.83430671691895 212.5805053710938 61.74523544311523 L 212.5805053710938 95.40869903564453 Z M 106.0610809326172 95.40869903564453 L 7.500002861022949 95.40869903564453 L 7.500002861022949 60.27509307861328 C 7.500002861022949 43.01998519897461 14.94771671295166 27.25666236877441 27.93346786499023 17.02702140808105 C 35.72867965698242 10.88298511505127 45.46760940551758 7.499984741210938 55.35768127441406 7.499984741210938 L 73.93642425537109 7.499984741210938 L 102.9686431884766 86.94630432128906 L 106.0610809326172 95.40869903564453 Z"/><path class="g" d="M 55.357666015625 15.00000762939453 C 47.14442443847656 15.00000762939453 39.05429077148438 17.81134033203125 32.57453918457031 22.91854858398438 C 21.40567016601563 31.71696472167969 15 45.33288192749023 15 60.27509307861328 L 15 87.90867614746094 L 95.33526611328125 87.90867614746094 L 68.69209289550781 15.00000762939453 L 55.357666015625 15.00000762939453 M 148.1258544921875 15.00000762939453 L 124.6329498291016 87.90867614746094 L 205.0805053710938 87.90867614746094 L 205.0805053710938 61.74521636962891 C 205.0805053710938 35.96984100341797 186.3704223632813 15.00000762939453 163.3726196289063 15.00000762939453 L 148.1258544921875 15.00000762939453 M 55.357666015625 7.62939453125e-06 L 79.18080139160156 7.62939453125e-06 L 110.0130462646484 84.37204742431641 L 137.19970703125 7.62939453125e-06 L 163.3726196289063 7.62939453125e-06 C 194.6914978027344 7.62939453125e-06 220.0805053710938 27.64425659179688 220.0805053710938 61.74521636962891 L 220.0805053710938 102.9086761474609 L 0 102.9086761474609 L 0 60.27509307861328 C 0 40.16867446899414 9.0416259765625 22.36163330078125 23.29234313964844 11.13550567626953 C 32.05120849609375 4.231925964355469 43.25054931640625 7.62939453125e-06 55.357666015625 7.62939453125e-06 Z"/></g><g class="b" transform="translate(192.67 206.924)"><path class="f" d="M 18.68178939819336 62.94330978393555 L 9.175324440002441 62.94330978393555 L 11.15320110321045 6.663744449615479 L 14.48566818237305 6.663744449615479 L 18.68178939819336 62.94330978393555 Z"/><path class="g" d="M 3.912145614624023 -0.8362579345703125 L 21.44728851318359 -0.8362579345703125 L 26.76178932189941 70.44331359863281 L 1.407121658325195 70.44331359863281 L 3.912145614624023 -0.8362579345703125 Z"/></g><g class="b" transform="translate(193.415 191.187)"><path class="f" d="M0,0H23.249L20.6,13.008H3.167Z"/><path class="g" d="M 1.9073486328125e-06 1.9073486328125e-06 L 23.24894714355469 1.9073486328125e-06 L 20.59638404846191 13.00832843780518 L 3.167020797729492 13.00832843780518 L 1.9073486328125e-06 1.9073486328125e-06 Z"/></g></g><path class="d" d="M0,0H233.416" transform="translate(82.904 359.078)"/><path class="d" d="M0,0H233.416" transform="translate(82.904 327.182)"/><path class="d" d="M0,0H233.416" transform="translate(82.904 295.287)"/><path class="e" d="M233.416,0" transform="translate(87.904 343.869)"/></g></svg>